<svg width="164" height="164" viewBox="0 0 164 164" fill="none" xmlns="http://www.w3.org/2000/svg">
<path d="M79.2 17.2994C79.1131 17.4788 79.0487 17.6671 79.0069 17.8644C78.9659 18.0464 78.9326 18.2288 78.9069 18.4116C78.8478 18.9151 78.7436 19.4007 78.5944 19.8683C78.4613 20.3215 78.3044 20.7888 78.1237 21.27C78.018 21.5098 77.9051 21.7415 77.785 21.9651C77.6657 22.1733 77.5235 22.3803 77.3583 22.586C76.9956 23.0263 76.5689 23.2402 76.0781 23.2279C75.6027 23.2165 75.1835 23.0239 74.8207 22.6502C74.6329 22.4399 74.4685 22.2233 74.3275 22.0004C74.2018 21.7783 74.0846 21.5413 73.976 21.2894C73.6237 20.4556 73.3416 19.6027 73.1298 18.7307C72.9332 17.8596 72.7443 16.9889 72.563 16.1186C72.4089 15.3113 72.2697 14.5125 72.1453 13.7223C72.0372 12.9176 71.9366 12.1133 71.8438 11.3095C71.7795 10.8144 71.7302 10.3278 71.6958 9.84982C71.6622 9.35647 71.6511 8.87208 71.6626 8.39664C71.6893 7.92206 71.7909 7.48242 71.9673 7.07771C72.1871 6.72152 72.4649 6.56059 72.8009 6.5949C72.9684 6.61971 73.1027 6.68872 73.2038 6.80193C73.3211 6.90069 73.4065 7.02069 73.46 7.16193C73.5253 7.36526 73.5744 7.58304 73.6074 7.81527C73.6412 8.03218 73.667 8.25632 73.6846 8.48769C73.759 9.07547 73.8329 9.67092 73.9064 10.274C73.9807 10.8618 74.0623 11.4577 74.1511 12.0616C74.2271 12.6188 74.3028 13.1836 74.378 13.7561C74.4685 14.3295 74.5594 14.8951 74.6508 15.4532C74.7303 15.9491 74.8175 16.4455 74.9123 16.9423C75.008 17.4238 75.1267 17.9065 75.2683 18.3906C75.3726 18.719 75.4774 19.0398 75.5826 19.3529C75.6878 19.6659 75.816 19.9803 75.9671 20.296C75.9807 20.3275 75.9866 20.3585 75.9849 20.3892C75.9985 20.4206 76.0354 20.4458 76.0958 20.4645C76.233 20.2112 76.3251 19.9399 76.3721 19.6508C76.6203 18.7894 76.8384 17.9186 77.0263 17.0385C77.2142 16.1584 77.3867 15.2773 77.544 14.3955C77.6193 13.8776 77.6941 13.3673 77.7686 12.8647C77.8439 12.3468 77.9259 11.8446 78.0148 11.3582C78.0575 11.1456 78.0998 10.9406 78.1417 10.7433C78.1835 10.546 78.233 10.3492 78.2902 10.1528C78.3661 9.89596 78.5092 9.67367 78.7194 9.48588C78.9441 9.31427 79.2163 9.25284 79.5361 9.30159C79.8558 9.35035 80.0939 9.48664 80.2502 9.71047C80.4091 9.88837 80.5131 10.0862 80.5622 10.304C80.6114 10.5218 80.6376 10.7383 80.6408 10.9534C80.7048 11.7249 80.776 12.5045 80.8544 13.2922C80.949 14.0654 81.0436 14.8386 81.1382 15.6119C81.2134 16.1843 81.3043 16.75 81.411 17.3089C81.5177 17.8678 81.6478 18.4204 81.8012 18.9665C81.9047 19.3102 82.0239 19.6472 82.1589 19.9773C82.2938 20.3074 82.4607 20.6163 82.6595 20.904C82.7444 21.0316 82.8022 21.0963 82.8328 21.098C82.8787 21.1006 82.9587 21.0437 83.0728 20.9273C83.2874 20.6629 83.4645 20.3811 83.6043 20.0819C83.744 19.7826 83.8685 19.4825 83.9776 19.1815C84.2325 18.474 84.4496 17.7568 84.6288 17.0297C84.8234 16.3036 84.9878 15.568 85.1219 14.823C85.1955 14.3357 85.2618 13.8403 85.321 13.3369C85.3963 12.819 85.4635 12.3083 85.5226 11.8048C85.5774 11.3779 85.6011 10.9569 85.5938 10.5418C85.5874 10.1114 85.581 9.68104 85.5745 9.25066C85.569 8.80498 85.5783 8.36781 85.6025 7.93915C85.6275 7.49519 85.6755 7.05253 85.7465 6.61116C85.855 6.04905 86.1827 5.82181 86.7295 5.92945C86.8953 5.98488 87.0279 6.0845 87.1273 6.22833C87.1978 6.33981 87.2597 6.46617 87.3132 6.60741C87.3675 6.73333 87.4065 6.8584 87.4302 6.9826C87.5667 7.55853 87.6563 8.14718 87.6992 8.74855C87.7421 9.34992 87.7547 9.94191 87.7372 10.5245C87.643 13.2836 87.2141 15.9854 86.4506 18.6299C86.3149 19.1291 86.1491 19.6188 85.953 20.0992C85.757 20.5796 85.5231 21.0502 85.2514 21.5109C84.9762 22.0329 84.6297 22.4587 84.2118 22.7884C83.7275 23.2064 83.2174 23.4004 82.6816 23.3701C82.1466 23.3246 81.6697 23.0673 81.2508 22.5983C80.9186 22.2263 80.6561 21.8429 80.4633 21.4481C80.1594 20.8474 79.9175 20.2348 79.7377 19.6103C79.5732 18.9867 79.4241 18.364 79.2902 17.7421C79.2792 17.6647 79.2678 17.595 79.256 17.5329C79.245 17.4555 79.2263 17.3776 79.2 17.2994ZM106.37 19.5815C106.503 19.461 106.622 19.3334 106.728 19.1986C106.855 19.0574 106.981 18.9162 107.108 18.775C107.262 18.6138 107.423 18.4734 107.591 18.3537C107.758 18.234 107.945 18.1422 108.152 18.0782C108.505 17.9695 108.844 17.9669 109.171 18.0702C109.498 18.1736 109.757 18.3886 109.949 18.7153C110.18 19.132 110.265 19.5935 110.206 20.0997C110.168 20.5653 110.076 21.0193 109.928 21.4619C109.795 21.9116 109.648 22.3541 109.487 22.7895C109.205 23.421 108.887 24.0243 108.531 24.5993C108.175 25.1744 107.805 25.7422 107.423 26.3029C107.352 26.4042 107.267 26.4984 107.169 26.5853C107.092 26.6659 106.988 26.7321 106.856 26.7841C106.731 26.8567 106.586 26.8843 106.422 26.8669C106.271 26.8567 106.149 26.7922 106.056 26.6735C105.854 26.4975 105.822 26.2464 105.96 25.9203C106.171 25.39 106.375 24.8562 106.572 24.3187C106.783 23.7885 106.987 23.2546 107.184 22.7172C107.287 22.3903 107.408 22.0809 107.544 21.789C107.681 21.4972 107.787 21.1977 107.863 20.8908C107.809 20.8621 107.764 20.8646 107.729 20.8981C107.701 20.918 107.673 20.938 107.645 20.9579C106.982 21.4917 106.365 22.0678 105.796 22.686C105.247 23.2979 104.738 23.9655 104.269 24.6889C104.141 24.8986 103.999 25.1012 103.844 25.2966C103.702 25.4992 103.561 25.7018 103.419 25.9044C103.122 26.3024 102.753 26.4107 102.311 26.2293C102.148 26.1434 102.028 25.9932 101.951 25.7788C101.866 25.578 101.86 25.3756 101.933 25.1714C102.007 24.933 102.084 24.705 102.165 24.4873C102.259 24.2768 102.356 24.0595 102.457 23.8354C102.654 23.3322 102.85 22.8291 103.047 22.3259C103.25 21.8092 103.457 21.3029 103.667 20.8069C103.907 20.2224 104.142 19.6447 104.375 19.0737C104.614 18.4892 104.864 17.9187 105.123 17.362C105.354 16.8597 105.588 16.3676 105.825 15.886C106.062 15.4043 106.31 14.9194 106.568 14.4314C106.84 13.9162 107.116 13.3943 107.395 12.8655C107.695 12.3304 108.035 11.8339 108.416 11.376C108.529 11.2277 108.645 11.0897 108.765 10.962C108.905 10.828 109.058 10.7183 109.225 10.6328C109.419 10.5275 109.619 10.4771 109.825 10.4817C110.044 10.4935 110.217 10.5763 110.344 10.73C110.667 11.0048 110.711 11.3658 110.474 11.8132C110.079 12.6274 109.639 13.4269 109.155 14.2117C108.684 15.0036 108.245 15.8031 107.836 16.6101C107.591 17.1054 107.333 17.5934 107.062 18.0743C106.804 18.5624 106.546 19.0504 106.288 19.5385L106.37 19.5815ZM123.827 37.7818C123.699 37.7508 123.568 37.7522 123.436 37.786C123.324 37.8214 123.215 37.8352 123.106 37.8273C122.832 37.8618 122.559 37.8746 122.288 37.8658C122.029 37.847 121.773 37.7741 121.521 37.6471C121.09 37.4528 120.792 37.1323 120.629 36.6856C120.488 36.2405 120.53 35.8087 120.756 35.3903C121.185 34.5735 121.74 33.9615 122.422 33.5544C123.113 33.1589 123.907 32.9392 124.801 32.8954C125.292 32.8766 125.73 32.9737 126.117 33.1865C126.526 33.4009 126.855 33.7346 127.105 34.1876C127.125 34.2108 127.134 34.2332 127.132 34.2548C127.152 34.278 127.172 34.3012 127.192 34.3244C127.325 34.2906 127.417 34.232 127.466 34.1486C127.527 34.0552 127.593 33.9676 127.665 33.8858C127.88 33.6187 128.073 33.3501 128.245 33.0799C128.427 32.8214 128.588 32.5504 128.728 32.2671C128.909 31.8671 128.961 31.5991 128.884 31.4631C128.817 31.3386 128.574 31.2449 128.154 31.1819C127.498 31.0799 126.824 31.0854 126.131 31.1982C125.935 31.2057 125.779 31.2596 125.663 31.3599C125.408 31.5805 125.14 31.5991 124.86 31.4157C124.766 31.3546 124.693 31.246 124.639 31.0899C124.585 30.9338 124.568 30.7859 124.589 30.6461C124.691 30.2947 124.901 30.0218 125.219 29.8275C125.526 29.6433 125.841 29.503 126.163 29.4068C126.497 29.3006 126.833 29.2326 127.173 29.2028C127.545 29.1646 127.904 29.1581 128.25 29.1832C128.608 29.1982 128.962 29.2566 129.314 29.3582C129.867 29.5287 130.311 29.8436 130.648 30.3028C131.006 30.7636 131.139 31.3277 131.047 31.995C131.026 32.2762 130.958 32.5376 130.843 32.7792C130.749 33.0225 130.639 33.2699 130.512 33.5216C130.263 33.9601 129.988 34.3804 129.687 34.7826C129.396 35.1963 129.079 35.5918 128.736 35.9692C128.265 36.4785 127.794 36.977 127.323 37.4647C126.853 37.9524 126.372 38.4393 125.88 38.9254C125.609 39.221 125.302 39.4867 124.958 39.7227C124.59 40.0004 124.216 40.0711 123.834 39.9347C123.464 39.7883 123.247 39.4899 123.182 39.0395C123.162 38.8533 123.191 38.6868 123.267 38.5401C123.343 38.3934 123.434 38.2533 123.542 38.1198C123.59 38.0581 123.637 38.0071 123.683 37.967C123.741 37.9169 123.789 37.8551 123.827 37.7818ZM122.949 35.957C123.306 35.9721 123.653 35.9864 123.989 35.9999C124.337 36.0033 124.682 35.9686 125.024 35.8956C125.124 35.8702 125.2 35.7942 125.252 35.6675C125.327 35.5425 125.352 35.4193 125.328 35.298C125.316 35.1667 125.267 35.0979 125.18 35.0916C125.115 35.0869 125.046 35.0655 124.973 35.0276C124.939 35.0361 124.901 35.0387 124.858 35.0356C124.815 35.0325 124.777 35.0351 124.743 35.0436C124.393 35.0834 124.065 35.1738 123.762 35.3148C123.469 35.4458 123.198 35.6599 122.949 35.957ZM135.927 54.5415C136.291 54.785 136.644 54.9513 136.986 55.0402C137.44 55.1701 137.899 55.2902 138.362 55.4005C138.831 55.5253 139.301 55.6087 139.772 55.6509C139.835 55.6446 139.884 55.6434 139.918 55.6475C139.966 55.6463 140.012 55.638 140.055 55.6224C140.364 55.5278 140.613 55.6335 140.805 55.9393C140.953 56.2608 140.919 56.5502 140.702 56.8075C140.632 56.9304 140.542 57.0199 140.432 57.0758C140.341 57.141 140.231 57.197 140.101 57.2437C139.316 57.4611 138.507 57.5239 137.676 57.432C136.669 57.3055 135.754 56.9828 134.932 56.4638C134.745 56.3519 134.577 56.2249 134.428 56.0829C134.27 55.9605 134.133 55.8061 134.017 55.6197C133.801 55.2902 133.707 54.9165 133.736 54.4987C133.75 54.0861 133.877 53.7145 134.117 53.3838C134.287 53.1761 134.469 52.9802 134.663 52.7962C134.872 52.6069 135.086 52.4321 135.305 52.2717C135.772 51.8921 136.271 51.5577 136.802 51.2687C137.334 50.9797 137.868 50.6979 138.405 50.4232C139.171 50.0171 139.962 49.6346 140.778 49.2758C141.589 48.9026 142.413 48.5654 143.25 48.2643C143.409 48.2072 143.497 48.159 143.516 48.1198C143.534 48.0805 143.498 47.9795 143.407 47.8168C143.296 47.6448 143.178 47.4754 143.053 47.3086C142.937 47.1222 142.828 46.9332 142.726 46.7416C142.58 46.5171 142.523 46.2444 142.554 45.9236C142.62 45.6068 142.784 45.3846 143.048 45.2571C143.326 45.1244 143.602 45.1227 143.877 45.2521C144.123 45.3917 144.323 45.564 144.479 45.7689C144.644 46.0027 144.81 46.2364 144.975 46.4701C145.136 46.6895 145.292 46.9186 145.443 47.1575C145.534 47.3203 145.602 47.4181 145.646 47.451C145.7 47.4643 145.823 47.4444 146.016 47.3913C146.511 47.2292 147.01 47.0986 147.512 46.9994C148.024 46.8806 148.548 46.7979 149.085 46.7513C149.279 46.7467 149.47 46.7349 149.659 46.7159C149.867 46.7061 150.069 46.7231 150.264 46.767C150.411 46.8121 150.543 46.8623 150.661 46.9177C150.793 46.9679 150.908 47.0404 151.008 47.135C151.294 47.3417 151.417 47.6395 151.378 48.0284C151.329 48.209 151.237 48.3397 151.104 48.4205C150.975 48.5157 150.826 48.5774 150.657 48.6057C150.329 48.691 149.991 48.7475 149.642 48.7752C149.308 48.7976 148.97 48.8541 148.628 48.9447C148.343 49.0144 148.056 49.077 147.767 49.1324C147.482 49.2021 147.19 49.2745 146.891 49.3495C146.762 49.3962 146.685 49.432 146.661 49.4568C146.657 49.4908 146.681 49.58 146.733 49.7243C146.837 50.0128 146.943 50.2844 147.05 50.5389C147.158 50.7934 147.262 51.0577 147.36 51.3318C147.537 51.8224 147.497 52.301 147.241 52.7679C147.2 52.8804 147.137 52.9765 147.052 53.0561C146.986 53.1449 146.905 53.2148 146.809 53.2655C146.574 53.3826 146.33 53.3812 146.074 53.2611C145.834 53.1358 145.72 52.9566 145.734 52.7235C145.724 52.6946 145.711 52.6586 145.695 52.6153C145.699 52.5812 145.686 52.5452 145.656 52.5071C145.427 52.2312 145.26 51.9247 145.155 51.5877C145.055 51.2651 144.924 50.9457 144.761 50.6294L144.652 50.3264C144.59 50.1533 144.472 50.0979 144.299 50.1602C144.035 50.2877 143.766 50.4007 143.492 50.4994C143.232 50.5928 142.968 50.6961 142.699 50.8091C142.002 51.0924 141.314 51.3972 140.633 51.7238C139.952 52.0503 139.286 52.3958 138.635 52.7604C138.289 52.9335 137.947 53.1138 137.607 53.3013C137.287 53.498 136.964 53.7118 136.64 53.9426C136.521 54.0181 136.406 54.1082 136.297 54.2126C136.188 54.317 136.065 54.4266 135.927 54.5415ZM141.539 113.697C141.371 113.477 141.197 113.281 141.017 113.109C140.837 112.936 140.652 112.77 140.463 112.61C139.962 112.228 139.44 111.85 138.896 111.477C138.357 111.125 137.818 110.772 137.278 110.42C137.099 110.303 136.98 110.345 136.922 110.545C136.735 110.972 136.494 111.383 136.2 111.777C135.869 112.201 135.499 112.262 135.092 111.96C134.951 111.867 134.869 111.741 134.846 111.579C134.815 111.431 134.801 111.284 134.804 111.139C134.835 110.867 134.879 110.603 134.936 110.347C134.998 110.113 135.064 109.872 135.134 109.624C135.191 109.424 135.203 109.294 135.168 109.235C135.146 109.184 135.035 109.102 134.834 108.989C134.659 108.893 134.477 108.793 134.289 108.688C134.101 108.584 133.925 108.46 133.762 108.317C133.018 107.831 132.298 107.334 131.605 106.826C131.528 106.776 131.468 106.727 131.425 106.681C131.36 106.639 131.305 106.584 131.257 106.517C131.105 106.216 131.12 105.942 131.3 105.693C131.376 105.578 131.498 105.502 131.668 105.466C131.825 105.422 131.991 105.421 132.166 105.462C132.311 105.52 132.467 105.576 132.633 105.629C132.791 105.696 132.943 105.758 133.088 105.816C133.481 106 133.882 106.17 134.292 106.328C134.689 106.477 135.082 106.661 135.471 106.878C135.556 106.916 135.644 106.964 135.734 107.022C135.811 107.073 135.89 107.106 135.971 107.122C136.074 107.189 136.178 107.239 136.285 107.272C136.383 107.318 136.502 107.332 136.643 107.313C137.033 107.276 137.327 107.458 137.522 107.86C137.617 108.05 137.729 108.188 137.857 108.271C138.995 108.941 140.074 109.645 141.093 110.384C141.448 110.653 141.806 110.932 142.166 111.222C142.531 111.533 142.861 111.868 143.158 112.227C143.326 112.446 143.473 112.67 143.599 112.899C143.716 113.14 143.79 113.39 143.823 113.649C143.873 114.049 143.815 114.404 143.648 114.716C143.481 115.029 143.213 115.257 142.844 115.4C142.705 115.474 142.554 115.522 142.393 115.545C142.231 115.568 142.068 115.58 141.902 115.582C141.179 115.567 140.495 115.423 139.85 115.148C139.7 115.069 139.553 114.973 139.407 114.859C139.124 114.675 139.029 114.429 139.119 114.122C139.152 113.96 139.221 113.84 139.326 113.763C139.445 113.694 139.57 113.656 139.702 113.651C139.825 113.658 139.946 113.655 140.065 113.641C140.188 113.648 140.304 113.668 140.41 113.701C140.602 113.716 140.787 113.727 140.965 113.734C141.149 113.762 141.34 113.75 141.539 113.697ZM123.073 130.992C122.22 129.753 121.805 128.303 121.828 126.644C121.824 126.337 121.864 126.036 121.947 125.741C122.039 125.458 122.179 125.187 122.367 124.927C122.757 124.454 123.256 124.159 123.862 124.042C124.095 124.019 124.335 124.018 124.584 124.04C124.842 124.074 125.08 124.133 125.299 124.216C125.998 124.473 126.602 124.821 127.113 125.261C127.633 125.712 128.089 126.232 128.481 126.82C128.815 127.356 129.069 127.915 129.244 128.496C129.428 129.089 129.5 129.7 129.46 130.329C129.413 130.848 129.223 131.293 128.89 131.664C128.744 131.853 128.58 131.979 128.397 132.042C128.223 132.117 128.027 132.152 127.809 132.145C127.744 132.136 127.683 132.144 127.625 132.169C127.576 132.207 127.522 132.249 127.461 132.295C127.16 132.584 126.831 132.759 126.472 132.821C126.102 132.892 125.717 132.868 125.317 132.75C124.865 132.613 124.467 132.396 124.124 132.099C123.777 131.824 123.427 131.455 123.073 130.992ZM126.714 130.375C126.848 130.273 126.974 130.147 127.092 129.999C127.214 129.906 127.282 129.805 127.296 129.698C127.31 129.59 127.3 129.463 127.265 129.316C127.09 128.736 126.836 128.215 126.504 127.756C126.159 127.305 125.742 126.9 125.254 126.54C125.031 126.401 124.762 126.289 124.445 126.203C124.295 126.183 124.197 126.181 124.151 126.197C124.102 126.234 124.068 126.328 124.048 126.479C124.022 126.672 124.003 126.861 123.989 127.045C123.973 127.251 123.979 127.449 124.009 127.638C124.06 127.831 124.116 128.03 124.176 128.235C124.224 128.449 124.291 128.649 124.375 128.835C124.492 129.113 124.62 129.382 124.761 129.641C124.911 129.912 125.11 130.147 125.357 130.343C125.614 130.552 125.84 130.659 126.036 130.663C126.233 130.667 126.459 130.571 126.714 130.375ZM108.767 143.149C108.688 143.255 108.645 143.348 108.639 143.431C108.637 143.528 108.631 143.61 108.62 143.678C108.566 143.968 108.486 144.25 108.379 144.525C108.277 144.814 108.124 145.07 107.921 145.295C107.649 145.605 107.356 145.825 107.044 145.955C106.721 146.105 106.359 146.13 105.958 146.03C105.668 145.977 105.424 145.837 105.224 145.61C105.01 145.388 104.891 145.136 104.867 144.854C104.823 144.562 104.883 144.343 105.046 144.195C105.209 144.048 105.437 144.008 105.732 144.077C105.886 144.109 106.008 144.111 106.095 144.083C106.183 144.056 106.267 143.965 106.348 143.811C106.388 143.735 106.423 143.643 106.454 143.537C106.471 143.435 106.497 143.339 106.532 143.247C106.561 142.981 106.576 142.72 106.576 142.463C106.58 142.22 106.582 141.97 106.582 141.713C106.571 141.219 106.551 140.719 106.521 140.214C106.482 139.728 106.425 139.24 106.351 138.749C106.289 138.447 106.227 138.145 106.164 137.843C106.102 137.541 106.025 137.244 105.933 136.952C105.901 136.849 105.874 136.737 105.852 136.615C105.815 136.498 105.8 136.374 105.807 136.244C105.816 135.759 106.047 135.445 106.501 135.303C106.941 135.117 107.327 135.197 107.66 135.542C107.756 135.641 107.838 135.752 107.909 135.874C107.965 136.001 108.024 136.111 108.085 136.205C108.38 136.787 108.658 137.367 108.919 137.944C109.185 138.535 109.451 139.127 109.717 139.718C109.963 140.3 110.19 140.896 110.397 141.506C110.609 142.13 110.806 142.759 110.989 143.393C111.117 143.803 111.058 144.151 110.81 144.437C110.597 144.681 110.333 144.788 110.019 144.758C109.709 144.742 109.464 144.602 109.284 144.337C109.123 144.131 109.006 143.91 108.932 143.676C108.924 143.598 108.906 143.516 108.879 143.428C108.837 143.345 108.799 143.252 108.767 143.149ZM47.8101 133.9C48.0681 133.787 48.3 133.684 48.5059 133.59C48.6903 133.499 48.8915 133.41 49.1095 133.325C49.4443 133.213 49.7712 133.124 50.0904 133.058C50.4004 133.004 50.7316 132.985 51.0842 133.002C51.7465 133.041 52.2884 133.278 52.7098 133.712C53.1647 134.229 53.3493 134.85 53.2637 135.573C53.2162 135.941 53.1213 136.282 52.979 136.598C52.8274 136.925 52.6361 137.242 52.4048 137.548C51.7915 138.333 51.0868 138.935 50.2909 139.352C49.4949 139.769 48.6183 140.038 47.661 140.16C47.3788 140.177 47.0952 140.184 46.81 140.18C46.5248 140.175 46.2521 140.104 45.992 139.965C45.7471 139.856 45.5375 139.727 45.3633 139.576C45.1769 139.416 45.009 139.231 44.8595 139.022C44.8443 138.991 44.8169 138.951 44.7772 138.902C44.7283 138.865 44.6701 138.84 44.6027 138.828C44.4547 139.023 44.3021 139.225 44.1449 139.433C43.9662 139.644 43.8043 139.858 43.6594 140.075C43.2987 140.552 42.9289 141.003 42.55 141.428C42.325 141.7 42.1169 141.975 41.9257 142.253C41.7222 142.522 41.5188 142.791 41.3153 143.06C41.1274 143.284 40.9409 143.517 40.7559 143.762C40.5587 143.997 40.36 144.222 40.1598 144.436C40.0059 144.589 39.8505 144.731 39.6936 144.862C39.5244 144.984 39.34 145.075 39.1405 145.136C38.9069 145.267 38.6861 145.253 38.4782 145.096C38.2059 144.948 38.0964 144.711 38.1498 144.387C38.1659 144.187 38.2158 143.994 38.2993 143.807C38.3614 143.624 38.451 143.442 38.5683 143.261C38.7628 142.928 38.9803 142.602 39.2208 142.284C39.449 141.957 39.6895 141.639 39.9422 141.33C40.4971 140.596 41.0627 139.861 41.6391 139.124C42.2062 138.4 42.778 137.669 43.3544 136.932C43.6689 136.516 43.9833 136.1 44.2978 135.685C44.5907 135.272 44.9006 134.862 45.2272 134.455C45.5539 134.049 45.8791 133.632 46.2028 133.204C46.5173 132.788 46.8119 132.347 47.0866 131.882C47.2254 131.699 47.3396 131.497 47.4294 131.276C47.5476 130.866 47.8197 130.697 48.2457 130.769C48.595 130.841 48.778 131.095 48.7947 131.53C48.7788 131.653 48.7523 131.777 48.715 131.902C48.6777 132.028 48.6389 132.143 48.5986 132.247C48.4811 132.504 48.3589 132.767 48.2321 133.037C48.0838 133.309 47.9431 133.597 47.8101 133.9ZM46.3551 137.731C46.4711 137.857 46.5965 137.932 46.7314 137.957C46.857 137.995 46.9857 138.015 47.1175 138.019C47.2831 138.029 47.4457 138.017 47.6053 137.984C47.7556 137.963 47.9152 137.93 48.0841 137.885C48.6643 137.727 49.1911 137.501 49.6646 137.205C50.1258 136.901 50.5123 136.491 50.824 135.977C50.9073 135.867 50.9937 135.74 51.0832 135.596C51.1512 135.456 51.1394 135.331 51.0478 135.224C50.9685 135.125 50.8598 135.091 50.7216 135.121C50.562 135.154 50.4254 135.195 50.3118 135.244C49.8174 135.389 49.3674 135.577 48.9617 135.809C48.5438 136.031 48.1364 136.29 47.7396 136.586C47.4905 136.763 47.2583 136.943 47.0429 137.126C46.8182 137.321 46.589 137.523 46.3551 137.731ZM26.7683 126.725C27.1836 126.98 27.3491 127.331 27.2646 127.779C27.2238 127.936 27.1298 128.084 26.9824 128.222C26.8351 128.36 26.6638 128.449 26.4686 128.489C26.2521 128.525 26.0327 128.49 25.8103 128.381C25.5753 128.282 25.3973 128.144 25.2763 127.966C25.0256 127.599 25.028 127.235 25.2835 126.875C25.3923 126.708 25.5463 126.594 25.7455 126.532C25.9234 126.466 26.1169 126.464 26.3259 126.526C26.4112 126.542 26.4944 126.569 26.5756 126.606C26.6355 126.639 26.6997 126.679 26.7683 126.725ZM34.1333 120.584C34.3646 120.352 34.6108 120.305 34.8717 120.442C35.1413 120.592 35.2716 120.838 35.2625 121.178C35.243 121.34 35.1936 121.485 35.1142 121.613C35.0348 121.742 34.949 121.875 34.857 122.012C34.7056 122.171 34.5479 122.334 34.3839 122.502C34.2112 122.657 34.0448 122.807 33.8848 122.954C33.3035 123.462 32.7135 123.957 32.1148 124.44C31.4949 124.919 30.851 125.349 30.1832 125.731C30.0352 125.813 29.883 125.889 29.7264 125.959C29.5571 126.038 29.3789 126.076 29.1917 126.073C29.0219 126.097 28.8644 126.083 28.7192 126.034C28.5654 125.972 28.4367 125.865 28.333 125.713C28.1468 125.413 28.1561 125.1 28.361 124.775C28.5111 124.505 28.7192 124.28 28.9852 124.098L31.6067 122.309C31.7673 122.218 31.9596 122.105 32.1835 121.971C32.4075 121.836 32.6461 121.683 32.8994 121.51C33.102 121.372 33.311 121.229 33.5263 121.082C33.7329 120.922 33.9352 120.756 34.1333 120.584ZM20.6993 104.833C21.0099 105.032 21.3072 105.156 21.5913 105.204C22.2243 105.362 22.8704 105.452 23.5296 105.475C24.1887 105.497 24.8502 105.472 25.5141 105.398C25.6659 105.371 25.8218 105.359 25.9819 105.362C26.1419 105.366 26.2913 105.387 26.4301 105.428C26.8612 105.547 27.1062 105.797 27.165 106.178C27.2187 106.37 27.2124 106.547 27.1462 106.709C27.0799 106.871 26.98 107.026 26.8465 107.175C26.7301 107.271 26.6022 107.354 26.4628 107.425C26.3192 107.481 26.1777 107.545 26.0383 107.615C25.4682 107.854 24.9002 108.101 24.3343 108.354C23.7495 108.597 23.1658 108.816 22.5834 109.011C22.1929 109.152 21.7942 109.263 21.3872 109.345C20.9802 109.427 20.5691 109.494 20.1539 109.546C20.0801 109.567 20.0095 109.571 19.9422 109.558C19.8601 109.549 19.7874 109.545 19.7242 109.547C19.3179 109.517 19.0874 109.319 19.0326 108.952C19.0061 108.801 19.0354 108.649 19.1205 108.498C19.2057 108.347 19.3274 108.241 19.4857 108.181C19.8277 108.038 20.1645 107.904 20.4959 107.779C20.8231 107.64 21.1483 107.493 21.4715 107.339C21.5264 107.308 21.5982 107.28 21.6868 107.255C21.7607 107.235 21.8283 107.192 21.8898 107.127C21.8396 107.061 21.7903 107.027 21.7419 107.025C21.6787 107.027 21.6228 107.026 21.5744 107.024C21.2378 106.959 20.9086 106.892 20.5867 106.822C20.2501 106.757 19.9368 106.662 19.6469 106.536C19.504 106.48 19.3685 106.423 19.2403 106.363C19.0974 106.307 18.9652 106.233 18.8435 106.139C18.4261 105.842 18.1924 105.462 18.1425 104.998C18.0777 104.538 18.2203 104.109 18.5701 103.708C18.7693 103.509 18.9914 103.336 19.2366 103.188C19.467 103.044 19.711 102.92 19.9686 102.816C20.391 102.618 20.8249 102.433 21.2703 102.261C21.6968 102.078 22.1233 101.895 22.5498 101.713C22.8074 101.609 23.0629 101.497 23.3163 101.379C23.5509 101.25 23.7969 101.133 24.0545 101.029C24.1496 100.971 24.2279 100.909 24.2893 100.844C24.3508 100.779 24.404 100.685 24.449 100.561C24.5247 100.205 24.7563 100.037 25.1438 100.056C25.5501 100.086 25.843 100.251 26.0224 100.551C26.2018 100.851 26.2146 101.182 26.0608 101.543C25.9799 101.709 25.8853 101.855 25.7771 101.981C25.669 102.107 25.5514 102.227 25.4244 102.342C25.0621 102.698 24.676 102.997 24.266 103.239C23.856 103.481 23.4156 103.699 22.9447 103.895C22.6175 104.034 22.2808 104.168 21.9346 104.296C21.5884 104.425 21.2558 104.574 20.9368 104.742C20.9073 104.751 20.8798 104.766 20.8544 104.789C20.8101 104.802 20.7584 104.816 20.6993 104.833ZM16.4621 81.0452C16.6817 81.3422 16.9157 81.5635 17.1643 81.7091C17.7004 82.0808 18.2725 82.3942 18.8807 82.6493C19.4889 82.9043 20.1165 83.115 20.7635 83.2812C20.9148 83.3102 21.0648 83.3546 21.2133 83.4142C21.3619 83.4738 21.4938 83.5473 21.6091 83.6347C21.9702 83.8982 22.1106 84.2188 22.0303 84.5964C22.0124 84.795 21.9438 84.9581 21.8244 85.0859C21.7051 85.2137 21.5567 85.3235 21.379 85.4152C21.2361 85.4639 21.0869 85.4966 20.9314 85.5133C20.7773 85.5148 20.6225 85.5239 20.467 85.5407C19.8493 85.5619 19.2309 85.5907 18.6117 85.6271C17.9787 85.647 17.3554 85.6445 16.7418 85.6199C16.3267 85.6132 15.9144 85.576 15.5048 85.5082C15.0953 85.4404 14.6871 85.3574 14.2803 85.2591C14.2039 85.2522 14.1366 85.2307 14.0783 85.1946C14.0047 85.1572 13.938 85.1281 13.8783 85.1073C13.5089 84.9354 13.3637 84.6682 13.4426 84.3059C13.4717 84.1545 13.5528 84.0233 13.686 83.9121C13.8192 83.801 13.9705 83.7454 14.1399 83.7453C14.5105 83.7326 14.8728 83.7268 15.2268 83.728C15.5822 83.7139 15.9383 83.6922 16.295 83.6628C16.3575 83.653 16.4345 83.6523 16.5262 83.6606C16.6025 83.6675 16.681 83.6515 16.7614 83.6126C16.7378 83.5334 16.7038 83.4842 16.6593 83.4648C16.5996 83.444 16.5475 83.4239 16.5031 83.4045C16.2115 83.2242 15.9275 83.0446 15.6511 82.8657C15.3595 82.6854 15.1005 82.4849 14.8741 82.2643C14.7602 82.1617 14.6539 82.0597 14.5553 81.9584C14.4414 81.8558 14.3441 81.7392 14.2636 81.6088C13.9787 81.1827 13.8952 80.7441 14.0129 80.2929C14.1154 79.8403 14.4011 79.4889 14.8702 79.2387C15.1269 79.1233 15.3962 79.0399 15.678 78.9884C15.9445 78.9354 16.2166 78.9061 16.4942 78.9004C16.9592 78.8654 17.4305 78.8464 17.9081 78.8434C18.3717 78.8236 18.8354 78.8039 19.299 78.7842C19.5767 78.7785 19.855 78.7651 20.134 78.7442C20.3991 78.7065 20.6705 78.6848 20.9481 78.6791C21.0578 78.6582 21.1529 78.6283 21.2334 78.5894C21.3139 78.5505 21.3971 78.481 21.4831 78.381C21.6801 78.0755 21.9563 78.0004 22.3118 78.1557C22.6811 78.3276 22.8965 78.5857 22.9577 78.9299C23.019 79.2741 22.9137 79.5879 22.6418 79.8713C22.5072 79.9977 22.3671 80.1005 22.2213 80.1797C22.0756 80.2589 21.923 80.3298 21.7634 80.3924C21.2984 80.5967 20.8314 80.7393 20.3622 80.8201C19.893 80.9009 19.4037 80.9491 18.8943 80.9647C18.5389 80.9787 18.1766 80.9845 17.8073 80.982C17.438 80.9794 17.0743 81.0004 16.7162 81.0451C16.6857 81.0423 16.6544 81.0472 16.6225 81.0597C16.5767 81.0556 16.5232 81.0507 16.4621 81.0452ZM20.6006 63.3122C19.9486 63.0053 19.3667 62.6214 18.855 62.1603C18.3359 61.6788 17.8568 61.1483 17.4177 60.5689C17.2121 60.2857 17.0333 59.9813 16.8815 59.6557C16.7297 59.3301 16.6257 58.993 16.5693 58.6445C16.4893 58.1663 16.5199 57.7232 16.6611 57.3151C16.8292 56.8858 17.0957 56.5537 17.4605 56.3186C17.8253 56.0836 18.2305 55.9607 18.6761 55.9501C19.1078 55.9329 19.5293 56.0635 19.9406 56.3418C20.059 56.4144 20.1777 56.5042 20.2969 56.6111C20.416 56.718 20.5217 56.8355 20.6139 56.9636C20.8759 57.3072 21.1077 57.679 21.3093 58.0788C21.5035 58.4583 21.637 58.877 21.7096 59.3348C21.7578 59.6286 21.7786 59.9265 21.7721 60.2285C21.7582 60.51 21.6791 60.7863 21.5346 61.0572C21.4889 61.1544 21.4734 61.2233 21.4881 61.2641C21.5093 61.2911 21.5685 61.3274 21.6656 61.3731C21.8811 61.4914 22.1096 61.582 22.3512 61.6448C22.5927 61.7076 22.8408 61.7566 23.0955 61.7917C23.315 61.7933 23.455 61.766 23.5153 61.7097C23.5757 61.6534 23.5929 61.5089 23.5667 61.2763C23.552 60.9474 23.4757 60.6234 23.3378 60.3043C23.2856 60.1272 23.2472 59.9567 23.2227 59.7926C23.1844 59.6221 23.146 59.4515 23.1076 59.2809C23.0782 59.1993 23.0619 59.09 23.0587 58.9529C23.0872 58.7121 23.1896 58.5485 23.3659 58.462C23.5348 58.355 23.7303 58.3538 23.9523 58.4583C24.0494 58.504 24.1433 58.5566 24.2338 58.6162C24.3244 58.6757 24.4118 58.7423 24.4958 58.8157C24.9382 59.2442 25.2752 59.7163 25.507 60.232C25.7388 60.7478 25.8111 61.3326 25.7237 61.9863C25.5597 62.875 25.0493 63.4736 24.1924 63.7822C23.7435 63.9438 23.3024 63.9989 22.869 63.9475C22.4357 63.8961 22.0015 63.8104 21.5665 63.6904C21.4074 63.6325 21.2482 63.5745 21.0891 63.5166C20.9226 63.4383 20.7598 63.3701 20.6006 63.3122ZM18.9981 57.8047C18.9009 57.759 18.8144 57.7268 18.7385 57.708C18.6488 57.6827 18.5737 57.6982 18.5133 57.7545C18.4121 57.8255 18.388 57.9667 18.4411 58.1781C18.4427 58.2466 18.4545 58.3115 18.4766 58.3727C18.4986 58.4339 18.5243 58.5053 18.5537 58.587C18.6908 58.8718 18.8618 59.1386 19.0667 59.3875C19.278 59.6226 19.4927 59.8507 19.7106 60.0718C19.7751 60.1869 19.8546 60.2159 19.9493 60.1587C19.9901 60.1441 20.0203 60.1159 20.0399 60.0743C20.0521 60.0122 20.0578 59.9641 20.057 59.9298C20.004 59.1423 19.6963 58.4637 19.1339 57.8941C19.1127 57.8671 19.0882 57.8471 19.0605 57.8341C19.0189 57.8145 18.9981 57.8047 18.9981 57.8047ZM28.6254 40.4501C28.633 40.3184 28.6166 40.2166 28.5762 40.1446C28.5238 40.063 28.4833 39.991 28.4548 39.9286C28.3385 39.6576 28.2485 39.3783 28.1849 39.0907C28.1093 38.7935 28.0936 38.4953 28.1378 38.1961C28.192 37.7869 28.313 37.4413 28.5008 37.1594C28.6863 36.8559 28.9732 36.6342 29.3617 36.4944C29.6327 36.378 29.9141 36.3587 30.206 36.4364C30.5075 36.5021 30.7464 36.6455 30.9228 36.8664C31.1208 37.085 31.1931 37.3008 31.1396 37.5138C31.0862 37.7267 30.918 37.8865 30.635 37.9933C30.4887 38.0526 30.3867 38.1181 30.329 38.1897C30.2712 38.2613 30.2516 38.3834 30.2702 38.5559C30.2794 38.6421 30.3006 38.738 30.3338 38.8435C30.3765 38.937 30.4085 39.0317 30.4297 39.1276C30.5534 39.3651 30.6867 39.5907 30.8296 39.8043C30.9606 40.0084 31.0975 40.2172 31.2404 40.4308C31.5239 40.8366 31.8182 41.2411 32.1232 41.6445C32.426 42.0264 32.7443 42.4011 33.0782 42.7687C33.2978 42.985 33.5173 43.2013 33.7368 43.4177C33.9564 43.634 34.1855 43.8384 34.4243 44.0308C34.5078 44.0981 34.5926 44.1763 34.6785 44.2652C34.774 44.3422 34.855 44.4371 34.9217 44.5498C35.1836 44.9579 35.1655 45.347 34.8672 45.7171C34.6047 46.116 34.239 46.2644 33.77 46.1621C33.636 46.1329 33.5057 46.0869 33.379 46.0242C33.2619 45.9495 33.152 45.8904 33.0491 45.847C32.4804 45.5264 31.9272 45.1987 31.3896 44.8639C30.8401 44.5195 30.2905 44.1751 29.741 43.8306C29.213 43.4839 28.6935 43.1144 28.1825 42.7223C27.6595 42.3204 27.1462 41.9067 26.6424 41.481C26.3081 41.2116 26.1644 40.889 26.2113 40.5132C26.2532 40.1925 26.4133 39.9572 26.6916 39.8073C26.958 39.6478 27.2394 39.6285 27.5359 39.7493C27.7847 39.8316 28.0045 39.9498 28.1956 40.1037C28.2456 40.1638 28.3065 40.2227 28.3781 40.2804C28.4594 40.3262 28.5418 40.3828 28.6254 40.4501Z" fill="black"/>
</svg>
